<svg width="140" height="140" viewBox="0 0 84 84" xmlns="http://www.w3.org/2000/svg">
  <style>
    /* GitHub-like colors */
    .bg { fill: #0d1117; }      /* Main Background */
    .off { fill: #161b22; }     /* Inactive Square */
    .on { fill: #39d353; }      /* Active Green Square */
  </style>

  <rect width="84" height="84" class="bg" />

  <g transform="translate(2, 2)">
    
    <rect x="0" y="0" width="10" height="10" rx="2" class="off" />
    <rect x="12" y="0" width="10" height="10" rx="2" class="on" />
    <rect x="24" y="0" width="10" height="10" rx="2" class="on" />
    <rect x="36" y="0" width="10" height="10" rx="2" class="off" />
    <rect x="48" y="0" width="10" height="10" rx="2" class="on" />
    <rect x="60" y="0" width="10" height="10" rx="2" class="on" />
    <rect x="72" y="0" width="10" height="10" rx="2" class="off" />

    <rect x="0" y="12" width="10" height="10" rx="2" class="on" />
    <rect x="12" y="12" width="10" height="10" rx="2" class="on" />
    <rect x="24" y="12" width="10" height="10" rx="2" class="on" />
    <rect x="36" y="12" width="10" height="10" rx="2" class="on" />
    <rect x="48" y="12" width="10" height="10" rx="2" class="on" />
    <rect x="60" y="12" width="10" height="10" rx="2" class="on" />
    <rect x="72" y="12" width="10" height="10" rx="2" class="on" />

    <rect x="0" y="24" width="10" height="10" rx="2" class="on" />
    <rect x="12" y="24" width="10" height="10" rx="2" class="on" />
    <rect x="24" y="24" width="10" height="10" rx="2" class="on" />
    <rect x="36" y="24" width="10" height="10" rx="2" class="on" />
    <rect x="48" y="24" width="10" height="10" rx="2" class="on" />
    <rect x="60" y="24" width="10" height="10" rx="2" class="on" />
    <rect x="72" y="24" width="10" height="10" rx="2" class="on" />

    <rect x="0" y="36" width="10" height="10" rx="2" class="on" />
    <rect x="12" y="36" width="10" height="10" rx="2" class="on" />
    <rect x="24" y="36" width="10" height="10" rx="2" class="on" />
    <rect x="36" y="36" width="10" height="10" rx="2" class="on" />
    <rect x="48" y="36" width="10" height="10" rx="2" class="on" />
    <rect x="60" y="36" width="10" height="10" rx="2" class="on" />
    <rect x="72" y="36" width="10" height="10" rx="2" class="on" />

    <rect x="0" y="48" width="10" height="10" rx="2" class="off" />
    <rect x="12" y="48" width="10" height="10" rx="2" class="on" />
    <rect x="24" y="48" width="10" height="10" rx="2" class="on" />
    <rect x="36" y="48" width="10" height="10" rx="2" class="on" />
    <rect x="48" y="48" width="10" height="10" rx="2" class="on" />
    <rect x="60" y="48" width="10" height="10" rx="2" class="on" />
    <rect x="72" y="48" width="10" height="10" rx="2" class="off" />

    <rect x="0" y="60" width="10" height="10" rx="2" class="off" />
    <rect x="12" y="60" width="10" height="10" rx="2" class="off" />
    <rect x="24" y="60" width="10" height="10" rx="2" class="on" />
    <rect x="36" y="60" width="10" height="10" rx="2" class="on" />
    <rect x="48" y="60" width="10" height="10" rx="2" class="on" />
    <rect x="60" y="60" width="10" height="10" rx="2" class="off" />
    <rect x="72" y="60" width="10" height="10" rx="2" class="off" />

    <rect x="0" y="72" width="10" height="10" rx="2" class="off" />
    <rect x="12" y="72" width="10" height="10" rx="2" class="off" />
    <rect x="24" y="72" width="10" height="10" rx="2" class="off" />
    <rect x="36" y="72" width="10" height="10" rx="2" class="on" />
    <rect x="48" y="72" width="10" height="10" rx="2" class="off" />
    <rect x="60" y="72" width="10" height="10" rx="2" class="off" />
    <rect x="72" y="72" width="10" height="10" rx="2" class="off" />
    
  </g>
</svg>